# AST/ASF file generated using VICON BodyLanguage
# -----------------------------------------------
:version 1.10
:name VICON
:units
  mass 1.0
  length 0.45
  angle deg
:documentation
   .ast/.asf automatically generated from VICON data using
   VICON BodyBuilder and BodyLanguage model FoxedUp or BRILLIANT.MOD
:root
   order TX TY TZ RX RY RZ
   axis XYZ
   position 0 0 0  
   orientation 0 0 0 
:bonedata
  begin
     id 1 
     name lhipjoint
     direction 0.604623 -0.733026 0.311616 
     length 2.56391 
     axis 0 0 0  XYZ
  end
  begin
     id 2 
     name lfemur
     direction 0.34202 -0.939693 0  
     length 7.75596  
     axis 0 0 20  XYZ
    dof rx ry rz
    limits (-160.0 20.0)
           (-70.0 70.0)
           (-60.0 70.0)
  end
  begin
     id 3 
     name ltibia
     direction 0.34202 -0.939693 0   
     length 7.63697   
     axis 0 0 20   XYZ
    dof rx
    limits (-10.0 170.0)
  end
  begin
     id 4 
     name lfoot
     direction 0.048038 -0.131983 0.990087   
     length 1.94388   
     axis -90 7.62852e-016 20   XYZ
    dof rx rz
    limits (-45.0 90.0)
           (-70.0 20.0)
  end
  begin
     id 5 
     name ltoes
     direction 1.53565e-011 -4.21929e-011 1   
     length 0.984801   
     axis -90 7.62852e-016 20   XYZ
    dof rx
    limits (-90.0 20.0)
  end
  begin
     id 6 
     name rhipjoint
     direction -0.609162 -0.729836 0.31026   
     length 2.57511  
     axis 0 0 0  XYZ 
  end
  begin
     id 7 
     name rfemur
     direction -0.34202 -0.939693 0   
     length 7.60772   
     axis 0 0 -20   XYZ
    dof rx ry rz
    limits (-160.0 20.0)
           (-70.0 70.0)
           (-70.0 60.0)
  end
  begin
     id 8 
     name rtibia
     direction -0.34202 -0.939693 0   
     length 7.68497   
     axis 0 0 -20   XYZ
    dof rx
    limits (-10.0 170.0)
 end
 begin
     id 9 
     name rfoot
     direction -0.0969806 -0.266452 0.958957   
     length 2.01398  
     axis -90 -7.62852e-016 -20   XYZ
    dof rx rz
    limits (-45.0 90.0)
           (-20.0 70.0)
  end
  begin
     id 10 
     name rtoes
     direction -1.53552e-011 -4.21869e-011 1   
     length 1.00896   
     axis -90 -7.62852e-016 -20   XYZ
    dof rx
    limits (-90.0 20.0)
  end
  begin
     id 11 
     name lowerback
     direction 0.0305179 0.993923 -0.10576   
     length 2.09077   
     axis 0 0 0   XYZ
    dof rx ry rz
    limits (-20.0 45.0)
           (-30.0 30.0)
           (-30.0 30.0)
  end
  begin
     id 12 
     name upperback
     direction -0.0137909 0.999867 0.00873764   
     length 2.08918   
     axis 0 0 0   XYZ
    dof rx ry rz
    limits (-20.0 45.0)
           (-30.0 30.0)
           (-30.0 30.0)
  end
  begin
     id 13 
     name thorax
     direction -0.0278536 0.997917 0.0581839   
     length 2.11939   
     axis 0 0 0   XYZ
    dof rx ry rz
    limits (-20.0 45.0)
           (-30.0 30.0)
           (-30.0 30.0)
  end
  begin
     id 14 
     name lowerneck
     direction 0.0138689 0.999837 -0.0116016   
     length 1.74353   
     axis 0 0 0   XYZ
    dof rx ry rz
    limits (-20.0 45.0)
           (-30.0 30.0)
           (-30.0 30.0)
  end
  begin
     id 15 
     name upperneck
     direction -0.00992078 0.999667 0.0238149   
     length 1.71734   
     axis 0 0 0   XYZ
    dof rx ry rz
    limits (-20.0 45.0)
           (-30.0 30.0)
           (-30.0 30.0)
  end
  begin
     id 16
     name head
     direction -0.00530555 0.999941 0.00944937  
     length 1.78249  
     axis 0 0 0   XYZ
    dof rx ry rz
    limits (-20.0 45.0)
           (-30.0 30.0)
           (-30.0 30.0)
  end
  begin
     id 17 
     name lclavicle
     direction 0.929165 0.366864 0.0454227  
     length 3.65686  
     axis 0 0 0   XYZ
    dof ry rz
    limits (-20.0 10.0)
           (0.0 20.0)
  end
  begin
     id 18 
     name lhumerus
     direction 1 -4.4897e-011 3.05413e-018   
     length 5.15218   
     axis -180 -30 -90   XYZ
    dof rx ry rz
    limits (-60.0 90.0)
           (-90.0 90.0)
           (-90.0 90.0)
  end
  begin
     id 19
     name lradius
     direction 1 -4.48963e-011 5.40022e-027   
     length 3.49459   
     axis -180 -30 -90   XYZ
    dof rx
    limits (-10.0 170.0)
  end
  begin
     id 20
     name lwrist
     direction 1 -4.48966e-011 9.79369e-027   
     length 1.7473   
     axis -4.67603e-015 90 90   XYZ
    dof ry
    limits (-180.0 0.0)
 end
  begin
     id 21 
     name lhand
     direction 1 -4.48996e-011 1.9593e-026   
     length 0.512466   
     axis -1.24987e-014 90 90   XYZ
    dof rx rz
    limits (-90.0 90.0)
           (-45.0 45.0)
  end
  begin
     id 22 
     name lfingers
     direction 1 -4.48931e-011 3.91616e-026   
     length 0.413163   
     axis -2.49979e-014 90 90   XYZ
    dof rx
    limits (0.0 90.0)
  end
  begin
     id 23
     name lthumb
     direction 0.707107 -6.34959e-011 0.707107   
     length 0.593222   
     axis -90 45 5.69224e-014   XYZ
    dof rx rz
    limits (-45.0 45.0)
           (-45.0 45.0)
  end
  begin
     id 24 
     name rclavicle
     direction -0.951469 0.307727 0.00346571   
     length 3.42864  
     axis 0 0 0   XYZ 
    dof ry rz
    limits (-10.0 20.0)
           (-20.0 0.0)
  end
  begin
     id 25 
     name rhumerus
     direction -1 -4.48967e-011 2.58643e-027  
     length 5.44344   
     axis -180 30 90   XYZ
    dof rx ry rz
    limits (-90.0 60.0)
           (-90.0 90.0)
           (-90.0 90.0)
  end
  begin
     id 26 
     name rradius
     direction -1 -4.48973e-011 4.26485e-028   
     length 3.58403   
     axis -180 30 90   XYZ
    dof rx
    limits (-10.0 170.0)
  end
  begin
     id 27 
     name rwrist
     direction -1 -4.48962e-011 9.79331e-027   
     length 1.79202   
     axis -4.67603e-015 -90 -90   XYZ
    dof ry
    limits (-180.0 0.0)
  end
  begin
     id 28
     name rhand
     direction -1 -4.48975e-011 1.95891e-026   
     length 0.34249   
     axis -1.24987e-014 -90 -90   XYZ
    dof rx rz
    limits (-90.0 90.0)
           (-45.0 45.0)
  end
  begin
     id 29
     name rfingers
     direction -1 -4.48893e-011 3.9147e-026   
     length 0.276124   
     axis -2.49979e-014 -90 -90   XYZ
    dof rx
    limits (0.0 90.0)
  end
  begin
     id 30
     name rthumb
     direction -0.707107 -6.34898e-011 0.707107   
     length 0.39646   
     axis -90 -45 -5.69224e-014   XYZ
    dof rx rz
    limits (-45.0 45.0)
           (-45.0 45.0)
  end
:hierarchy
  begin
    root lhipjoint rhipjoint lowerback
    lhipjoint lfemur
    lfemur ltibia
    ltibia lfoot
    lfoot ltoes
    rhipjoint rfemur
    rfemur rtibia
    rtibia rfoot
    rfoot rtoes
    lowerback upperback
    upperback thorax
    thorax lowerneck lclavicle rclavicle
    lowerneck upperneck
    upperneck head
    lclavicle lhumerus
    lhumerus lradius
    lradius lwrist
    lwrist lhand lthumb
    lhand lfingers
    rclavicle rhumerus
    rhumerus rradius
    rradius rwrist
    rwrist rhand rthumb
    rhand rfingers
  end

#!OML:ASF H:\charlestonDancing\Project 1\Capture day 1\Session 1\femaleDancer.ASF
:FULLY-SPECIFIED
:DEGREES
31
root -17.7893 17.6539 -2.17759 -177.661 87.7033 -195.203
lowerback 29.0631 -7.10341 1.21383
upperback 5.36819 -8.10909 0.823644
thorax -9.90425 -3.57613 3.15545
lowerneck -4.37031 5.02778 6.88184
upperneck -16.903 6.66934 -5.11947
head -3.94549 3.38226 -2.84765
rclavicle 5.48646e-014 2.06736e-014
rhumerus -24.2371 21.0429 -83.3099
rradius 45.5994
rwrist 17.6044
rhand -23.367 -34.1942
rfingers 7.12502
rthumb 3.08872 -64.1516
lclavicle 5.48646e-014 2.06736e-014
lhumerus 38.458 -11.5812 62.3081
lradius 69.6042
lwrist 29.0669
lhand -15.4916 30.7739
lfingers 7.12502
lthumb 10.6905 60.4819
rfemur -45.2349 0.12533 17.4433
rtibia 38.0565
rfoot -7.16744 -5.48291
rtoes -28.1566
lfemur -44.9643 -1.23226 -18.0798
ltibia 70.6083
lfoot -7.84967 -6.89801
ltoes -18.2709
32
root -17.8812 17.6569 -2.25996 -182.762 87.4744 -200.538
lowerback 29.0973 -7.08921 1.24328
upperback 5.34583 -8.06714 0.916353
thorax -9.93734 -3.55394 3.23254
lowerneck -4.25798 4.87852 6.69256
upperneck -17.1422 6.49883 -4.98671
head -4.05782 3.30368 -2.78604
rclavicle 1.35174e-014 3.89618e-014
rhumerus -24.0476 20.6671 -82.776
rradius 46.1808
rwrist 17.4669
rhand -23.8229 -34.0211
rfingers 7.12502
rthumb 2.64842 -63.9844
lclavicle 1.35174e-014 3.89618e-014
lhumerus 38.5118 -12.1432 62.2006
lradius 69.9454
lwrist 29.0361
lhand -15.4129 30.2449
lfingers 7.12502
lthumb 10.7665 59.949
rfemur -45.4582 0.0408296 16.7521
rtibia 37.4229
rfoot -6.63859 -5.59354
rtoes -28.1439
lfemur -43.6002 -1.47707 -17.6381
ltibia 71.2958
lfoot -6.37168 -4.44833
ltoes -16.3205
33
root -17.9792 17.6447 -2.34937 -183.99 87.3392 -201.872
lowerback 29.2008 -7.08215 1.4253
upperback 5.39484 -7.97732 1.01407
thorax -9.9446 -3.51125 3.21505
lowerneck -4.23175 4.71861 6.56783
upperneck -17.3824 6.29865 -4.93507
head -4.15251 3.21101 -2.75627
rclavicle -1.18476e-013 3.02153e-014
rhumerus -23.6862 20.2361 -82.277
rradius 46.6932
rwrist 17.3882
rhand -23.9498 -33.8579
rfingers 7.12502
rthumb 2.5258 -63.8227
lclavicle -1.18476e-013 3.02153e-014
lhumerus 38.5854 -12.5756 62.1332
lradius 70.3806
lwrist 29.0763
lhand -15.1447 29.5825
lfingers 7.12502
lthumb 11.0252 59.273
rfemur -45.7568 -0.000305615 16.2245
rtibia 37.1201
rfoot -6.34912 -5.73732
rtoes -27.9484
lfemur -42.0996 -1.74311 -17.0124
ltibia 71.6834
lfoot -5.10314 -1.90518
ltoes -15.1511
34
root -18.0789 17.6187 -2.44499 -181.354 87.3359 -199.243
lowerback 29.2988 -7.08199 1.68868
upperback 5.48049 -7.85871 1.19145
thorax -9.90613 -3.45675 3.22695
lowerneck -4.11008 4.55721 6.26404
upperneck -17.6667 6.10563 -4.84075
head -4.28218 3.13028 -2.68783
rclavicle -8.66701e-014 2.54444e-014
rhumerus -23.2511 19.996 -81.7758
rradius 47.2164
rwrist 17.0753
rhand -23.8338 -33.6949
rfingers 7.12502
rthumb 2.63782 -63.6583
lclavicle -8.66701e-014 2.54444e-014
lhumerus 38.5069 -12.8602 62.2362
lradius 70.862
lwrist 29.2004
lhand -15.1504 29.4687
lfingers 7.12502
lthumb 11.0197 59.1594
rfemur -46.1108 0.0500474 15.8933
rtibia 37.0581
rfoot -5.91968 -5.85999
rtoes -28.3123
lfemur -40.4765 -1.95801 -16.1747
ltibia 71.8044
lfoot -4.21538 0.465639
ltoes -14.3934
35
root -18.1773 17.5752 -2.5466 -175.145 87.3844 -193.025
lowerback 29.3337 -7.09798 2.03051
upperback 5.53506 -7.73568 1.43248
thorax -9.87266 -3.40327 3.26073
lowerneck -3.89253 4.41982 5.92237
upperneck -17.9385 5.94815 -4.73099
head -4.42286 3.06815 -2.61036
rclavicle -8.34896e-014 5.1684e-014
rhumerus -22.8735 19.9247 -81.3381
rradius 47.7494
rwrist 16.5837
rhand -23.8922 -33.6028
rfingers 7.12502
rthumb 2.5815 -63.567
lclavicle -8.34896e-014 5.1684e-014
lhumerus 38.2423 -13.0702 62.4793
lradius 71.3062
lwrist 29.3618
lhand -15.2058 29.9665
lfingers 7.12502
lthumb 10.9662 59.66
rfemur -46.5465 0.168492 15.7241
rtibia 37.1541
rfoot -5.46097 -6.08891
rtoes -28.6944
lfemur -38.801 -2.04346 -15.1658
ltibia 71.6733
lfoot -3.69077 2.35584
ltoes -12.7003
